<svg width="33" height="33" viewBox="0 0 33 33" fill="none" xmlns="http://www.w3.org/2000/svg">
<mask id="mask0_114_434" style="mask-type:luminance" maskUnits="userSpaceOnUse" x="0" y="0" width="34" height="33">
<path fill-rule="evenodd" clip-rule="evenodd" d="M8.202 0.0149994L9.614 0L24.301 0.00600052C24.524 0.00800052 24.663 0.0109994 24.801 0.0149994C25.529 0.0339994 26.264 0.0759999 26.984 0.205C27.7052 0.326688 28.4045 0.554492 29.059 0.881001C29.711 1.209 30.309 1.637 30.826 2.15C31.3432 2.66056 31.7763 3.24987 32.109 3.896C32.449 4.553 32.662 5.226 32.793 5.948C32.923 6.66 32.966 7.386 32.985 8.106C32.995 8.436 32.999 8.766 33 9.097L33.002 9.686V22.723C33.002 23.115 33.002 23.508 33 23.901C32.998 24.231 32.995 24.561 32.985 24.891C32.965 25.611 32.923 26.338 32.793 27.049C32.6696 27.7635 32.439 28.4553 32.109 29.101C31.7761 29.7473 31.3431 30.3369 30.826 30.848C30.307 31.3608 29.7107 31.789 29.059 32.117C28.4045 32.4436 27.7053 32.6714 26.984 32.793C26.264 32.921 25.529 32.963 24.801 32.983L22.607 33L8.701 32.992C8.53464 32.9902 8.3683 32.9869 8.202 32.982C7.474 32.964 6.739 32.921 6.019 32.793C5.29808 32.6713 4.59917 32.4435 3.945 32.117C2.63555 31.458 1.56749 30.4025 0.893 29.101C0.563479 28.4551 0.332903 27.7634 0.209 27.049C0.0789996 26.338 0.0369996 25.611 0.0179996 24.892C0.00799965 24.562 0.00500026 24.231 0.00300026 23.901L0 23.31V10.275C0 9.883 2.59373e-07 9.49 0.00300026 9.098C0.00500026 8.768 0.00899965 8.438 0.0179996 8.107C0.0379996 7.387 0.0799996 6.661 0.209 5.949C0.33283 5.23457 0.563409 4.54284 0.893 3.897C1.5665 2.59508 2.6344 1.53944 3.944 0.881001C4.59851 0.554478 5.29776 0.326673 6.019 0.205C6.739 0.0769999 7.474 0.0349994 8.202 0.0149994Z" fill="white"/>
</mask>
<g mask="url(#mask0_114_434)">
<path d="M-22 -18.0068H90.8308V94.8239H-22V-18.0068Z" fill="#19AA1E"/>
<path fill-rule="evenodd" clip-rule="evenodd" d="M-22 -18.0068H90.8308V19.012L-22 1.38462V-18.0068Z" fill="#FFB919"/>
<path fill-rule="evenodd" clip-rule="evenodd" d="M-22 -0.844238L17.3846 5.30961C22.2872 2.20534 28.1197 0.502774 34.4137 0.502774C43.1316 0.502774 50.9675 3.76773 56.6701 9.49764C57.388 10.2224 58.065 10.978 58.7043 11.7643L90.8308 16.7831V21.2447L61.9658 16.7318C64.1262 20.8618 65.2579 25.4522 65.265 30.113C65.265 36.1575 63.9145 42.1848 61.118 48.2361L61.0359 48.4207L59.8461 50.9643H57.0427C51.2444 50.9643 47.4017 52.6976 44.8855 55.7711C42.9128 58.1814 41.7709 61.4361 41.388 64.9848L41.3744 65.0942L41.3197 65.6617L41.2957 65.9079L41.2479 66.3899C41.1009 67.9763 41.0051 69.3199 40.9539 70.4139L90.8308 62.619V67.0806L-22 84.7113V80.2498L27.9316 72.4481L27.9111 71.4464L27.9043 71.166L27.8974 71.019L27.8906 70.7968C27.8461 69.5831 27.7333 68.0276 27.5556 66.1404L27.5214 65.7814L27.4598 65.1626C27.1043 61.5934 25.9795 58.3011 24.0068 55.8532C21.5214 52.7592 17.7162 50.9985 11.9624 50.9643H8.9812L7.79487 48.4207C4.94359 42.3079 3.56239 36.219 3.56239 30.113C3.56239 22.4344 6.67693 15.0088 12.1607 9.49764L12.6393 9.02927L-22 3.61388V-0.844238Z" fill="white"/>
<path fill-rule="evenodd" clip-rule="evenodd" d="M34.4137 4.90918C50.1675 4.90918 60.8581 17.0323 60.8581 30.1126C60.8581 35.3639 59.7128 40.8271 57.0393 46.557C41.5419 46.557 37.7163 57.6545 36.9915 64.6425L36.9436 65.104C36.7009 67.5998 36.5573 69.5998 36.5197 71.1041L32.3214 71.7605V71.6237C32.2629 69.4019 32.1124 67.1835 31.8701 64.9741L31.8598 64.8511C31.1898 57.8801 27.4462 46.557 11.7915 46.557C9.11454 40.8271 7.96924 35.3639 7.96924 30.1126C7.96924 17.0323 18.6633 4.90918 34.4137 4.90918Z" fill="#0073FA"/>
</g>
</svg>
