<svg width="92" height="84" viewBox="0 0 92 84" fill="none" xmlns="http://www.w3.org/2000/svg">
<rect x="0.842041" width="90.3158" height="84" rx="13" fill="#11F2BE" fill-opacity="0.12"/>
<mask id="mask0_85_418" style="mask-type:alpha" maskUnits="userSpaceOnUse" x="12" y="9" width="68" height="66">
<rect x="12.4736" y="9.33325" width="67.0526" height="65.3333" fill="#D9D9D9"/>
</mask>
<g mask="url(#mask0_85_418)">
<path d="M46 21.4261C46.6054 21.4261 47.1059 21.2332 47.5017 20.8476C47.8975 20.4619 48.0954 19.9742 48.0954 19.3844C48.0954 18.7946 47.8975 18.3068 47.5017 17.9212C47.1059 17.5355 46.6054 17.3427 46 17.3427C45.3947 17.3427 44.8941 17.5355 44.4983 17.9212C44.1026 18.3068 43.9047 18.7946 43.9047 19.3844C43.9047 19.9742 44.1026 20.4619 44.4983 20.8476C44.8941 21.2332 45.3947 21.4261 46 21.4261ZM62.7632 69.5366C59.6504 69.5366 57.0097 68.4799 54.8412 66.3665C52.6722 64.2532 51.5878 61.6802 51.5878 58.6477C51.5878 55.6147 52.6722 53.0415 54.8412 50.9281C57.0097 48.8152 59.6504 47.7588 62.7632 47.7588C65.876 47.7588 68.5167 48.8152 70.6852 50.9281C72.8542 53.0415 73.9386 55.6147 73.9386 58.6477C73.9386 61.6802 72.8542 64.2532 70.6852 66.3665C68.5167 68.4799 65.876 69.5366 62.7632 69.5366ZM61.689 66.4999H63.8374V59.6944H70.8221V57.6003H63.8374V50.7948H61.689V57.6003H54.7043V59.6944H61.689V66.4999ZM33.4277 33.1003H58.5724V30.3781H33.4277V33.1003ZM44.6625 63.7777H28.1626C26.9212 63.7777 25.8586 63.3471 24.9749 62.486C24.0911 61.6249 23.6492 60.5895 23.6492 59.38V24.6199C23.6492 23.4103 24.0911 22.375 24.9749 21.5138C25.8586 20.6527 26.9212 20.2222 28.1626 20.2222H41.2938C41.0391 18.8329 41.3802 17.5782 42.317 16.458C43.2534 15.3378 44.49 14.7777 46.0266 14.7777C47.5632 14.7777 48.8 15.3378 49.7368 16.458C50.6737 17.5782 50.9969 18.8329 50.7063 20.2222H63.8374C65.0788 20.2222 66.1414 20.6527 67.0252 21.5138C67.909 22.375 68.3509 23.4103 68.3509 24.6199V40.8171C67.4303 40.5308 66.5072 40.3074 65.5815 40.1468C64.6553 39.9862 63.7159 39.9059 62.7632 39.9059C61.8212 39.9059 60.9051 39.9782 60.0147 40.123C59.1249 40.2681 58.2502 40.4732 57.3906 40.7382V40.6388H33.4277V43.361H51.8294C50.4181 44.307 49.1778 45.4168 48.1087 46.6903C47.0396 47.9643 46.1593 49.3674 45.4678 50.8996H33.4277V53.6218H44.49C44.2897 54.3895 44.133 55.1632 44.0199 55.9432C43.9072 56.7235 43.8509 57.5202 43.8509 58.3333C43.8509 59.1672 43.9009 60.0825 44.001 61.0793C44.1016 62.0756 44.3221 62.9751 44.6625 63.7777Z" fill="#C3BE10"/>
</g>
</svg>
