<svg width="91" height="84" viewBox="0 0 91 84" fill="none" xmlns="http://www.w3.org/2000/svg">
<rect width="90.3158" height="84" rx="13" fill="#11F2BE" fill-opacity="0.12"/>
<g clip-path="url(#clip0_306_454)">
<path d="M20.2919 16.6542C19.4794 17.2692 19 18.2312 19 19.2501V58.2501C19 59.7004 19.962 60.9761 21.3579 61.3766L41.75 68.0001V22.5001L23.1421 16.1236C22.1647 15.8474 21.1076 16.0416 20.2919 16.6542Z" fill="#C3BE10"/>
<path d="M69.7081 16.654C68.8924 16.0414 67.8321 15.848 66.8579 16.1243L48.25 22.5V68L68.6421 61.3765C70.038 60.9759 71 59.7003 71 58.25V19.25C71 18.2311 70.5206 17.2691 69.7081 16.654Z" fill="#C3BE10"/>
</g>
<defs>
<clipPath id="clip0_306_454">
<rect width="52" height="52" fill="white" transform="translate(19 16)"/>
</clipPath>
</defs>
</svg>
