<svg width="101" height="43" viewBox="0 0 101 43" fill="none" xmlns="http://www.w3.org/2000/svg">
<path d="M5.011 34.165C8.659 31.011 11.528 28.427 13.618 26.413C15.746 24.361 17.513 22.233 18.919 20.029C20.325 17.825 21.028 15.621 21.028 13.417C21.028 11.137 20.477 9.351 19.375 8.059C18.311 6.767 16.62 6.121 14.302 6.121C12.06 6.121 10.312 6.843 9.058 8.287C7.842 9.693 7.196 11.593 7.12 13.987H0.85C0.964 9.655 2.256 6.349 4.726 4.069C7.234 1.751 10.407 0.591999 14.245 0.591999C18.387 0.591999 21.617 1.732 23.935 4.012C26.291 6.292 27.469 9.332 27.469 13.132C27.469 15.868 26.766 18.509 25.36 21.055C23.992 23.563 22.339 25.824 20.401 27.838C18.501 29.814 16.069 32.113 13.105 34.735L10.54 37.015H28.609V42.43H0.907V37.699L5.011 34.165ZM33.1775 21.682C33.1775 15.108 34.2795 9.978 36.4835 6.292C38.7255 2.568 42.5635 0.705998 47.9975 0.705998C53.4315 0.705998 57.2505 2.568 59.4545 6.292C61.6965 9.978 62.8175 15.108 62.8175 21.682C62.8175 28.332 61.6965 33.538 59.4545 37.3C57.2505 41.024 53.4315 42.886 47.9975 42.886C42.5635 42.886 38.7255 41.024 36.4835 37.3C34.2795 33.538 33.1775 28.332 33.1775 21.682ZM56.4335 21.682C56.4335 18.604 56.2245 16.001 55.8065 13.873C55.4265 11.745 54.6285 10.016 53.4125 8.686C52.1965 7.318 50.3915 6.634 47.9975 6.634C45.6035 6.634 43.7985 7.318 42.5825 8.686C41.3665 10.016 40.5495 11.745 40.1315 13.873C39.7515 16.001 39.5615 18.604 39.5615 21.682C39.5615 24.874 39.7515 27.553 40.1315 29.719C40.5115 31.885 41.3095 33.633 42.5255 34.963C43.7795 36.293 45.6035 36.958 47.9975 36.958C50.3915 36.958 52.1965 36.293 53.4125 34.963C54.6665 33.633 55.4835 31.885 55.8635 29.719C56.2435 27.553 56.4335 24.874 56.4335 21.682ZM100.017 25.159H88.5031V36.958H82.4611V25.159H70.9471V19.687H82.4611V7.888H88.5031V19.687H100.017V25.159Z" fill="#C3BE10"/>
</svg>
