<svg width="91" height="84" viewBox="0 0 91 84" fill="none" xmlns="http://www.w3.org/2000/svg">
<rect x="0.368408" width="90.3158" height="84" rx="13" fill="#11F2BE" fill-opacity="0.12"/>
<mask id="mask0_85_417" style="mask-type:alpha" maskUnits="userSpaceOnUse" x="12" y="9" width="68" height="66">
<rect x="12" y="9.33325" width="67.0526" height="65.3333" fill="#D9D9D9"/>
</mask>
<g mask="url(#mask0_85_417)">
<path d="M45.5264 68.2796C39.3403 68.2796 34.0688 67.5598 29.7118 66.1202C25.3543 64.6806 23.1755 62.6782 23.1755 60.113C23.1755 58.8707 23.7576 57.741 24.9217 56.7238C26.0858 55.7061 27.6492 54.8833 29.6119 54.2554L31.8959 56.2658C30.241 56.7331 28.8394 57.3027 27.6911 57.9747C26.5433 58.6466 25.9694 59.3594 25.9694 60.113C25.9694 61.5022 27.8015 62.7569 31.4656 63.8771C35.1298 64.9973 39.8167 65.5574 45.5264 65.5574C51.2361 65.5574 55.9231 64.9973 59.5872 63.8771C63.2514 62.7569 65.0834 61.5022 65.0834 60.113C65.0834 59.3594 64.5095 58.6466 63.3617 57.9747C62.2134 57.3027 60.8119 56.7331 59.157 56.2658L61.4409 54.2554C63.4036 54.8833 64.967 55.7061 66.1311 56.7238C67.2952 57.741 67.8773 58.8707 67.8773 60.113C67.8773 62.6782 65.6985 64.6806 61.3411 66.1202C56.984 67.5598 51.7125 68.2796 45.5264 68.2796ZM45.5264 58.8567C44.8242 58.8567 44.1572 58.7303 43.5253 58.4776C42.893 58.2244 42.3063 57.8796 41.7652 57.4431L24.1639 42.3192C23.8454 42.0297 23.6009 41.7051 23.4305 41.3453C23.2605 40.9859 23.1755 40.6125 23.1755 40.2251V34.8854C23.1755 34.463 23.2372 34.0636 23.3606 33.687C23.4845 33.31 23.7057 32.9765 24.0242 32.6866L41.7331 16.6411C42.2383 16.1597 42.8187 15.7986 43.4743 15.5577C44.1295 15.3167 44.8135 15.1963 45.5264 15.1963C46.2393 15.1963 46.9233 15.3167 47.5785 15.5577C48.2341 15.7986 48.8146 16.1597 49.3198 16.6411L67.0287 32.6866C67.3472 32.9765 67.5683 33.31 67.6922 33.687C67.8156 34.0636 67.8773 34.463 67.8773 34.8854V40.2251C67.8773 40.6125 67.7923 40.9859 67.6224 41.3453C67.4519 41.7051 67.2075 42.0297 66.889 42.3192L49.2876 57.4431C48.7466 57.8796 48.1599 58.2244 47.5275 58.4776C46.8956 58.7303 46.2286 58.8567 45.5264 58.8567ZM37.1448 37.2361C37.9793 37.2361 38.6805 36.9595 39.2486 36.4065C39.8162 35.8534 40.1 35.1701 40.1 34.3566C40.1 33.5436 39.8162 32.8606 39.2486 32.3075C38.6805 31.754 37.9793 31.4772 37.1448 31.4772C36.3104 31.4772 35.6091 31.754 35.0411 32.3075C34.4734 32.8606 34.1896 33.5436 34.1896 34.3566C34.1896 35.1701 34.4734 35.8534 35.0411 36.4065C35.6091 36.9595 36.3104 37.2361 37.1448 37.2361ZM41.6045 41.2255C43.4275 41.9337 45.3106 42.1091 47.2537 41.7516C49.1968 41.3936 50.9172 40.576 52.4147 39.2988C53.7827 38.1224 54.7024 36.6758 55.1736 34.9589C55.6444 33.2417 55.5699 31.5507 54.9501 29.8861L41.6045 41.2255ZM45.5264 29.0694C46.3608 29.0694 47.0621 28.7929 47.6302 28.2398C48.1978 27.6868 48.4816 27.0035 48.4816 26.19C48.4816 25.3769 48.1978 24.6939 47.6302 24.1408C47.0621 23.5873 46.3608 23.3106 45.5264 23.3106C44.692 23.3106 43.9907 23.5873 43.4226 24.1408C42.855 24.6939 42.5712 25.3769 42.5712 26.19C42.5712 27.0035 42.855 27.6868 43.4226 28.2398C43.9907 28.7929 44.692 29.0694 45.5264 29.0694Z" fill="#C3BE10"/>
</g>
</svg>
