<svg width="20" height="21" viewBox="0 0 20 21" fill="none" xmlns="http://www.w3.org/2000/svg">
<mask id="mask0_1_1246" style="mask-type:alpha" maskUnits="userSpaceOnUse" x="0" y="0" width="20" height="21">
<rect y="0.981445" width="20" height="20" fill="#D9D9D9"/>
</mask>
<g mask="url(#mask0_1_1246)">
<path d="M8.33341 14.3146H11.6667C11.9029 14.3146 12.1008 14.2348 12.2605 14.075C12.4202 13.9153 12.5001 13.7174 12.5001 13.4813V11.8146H10.8334V12.6479H9.16675V9.31462H10.8334V10.1479H12.5001V8.48128C12.5001 8.24517 12.4202 8.04725 12.2605 7.88753C12.1008 7.72781 11.9029 7.64795 11.6667 7.64795H8.33341C8.0973 7.64795 7.89939 7.72781 7.73966 7.88753C7.57994 8.04725 7.50008 8.24517 7.50008 8.48128V13.4813C7.50008 13.7174 7.57994 13.9153 7.73966 14.075C7.89939 14.2348 8.0973 14.3146 8.33341 14.3146ZM10.0001 19.3146C8.8473 19.3146 7.76397 19.0959 6.75008 18.6584C5.73619 18.2209 4.85425 17.6271 4.10425 16.8771C3.35425 16.1271 2.7605 15.2452 2.323 14.2313C1.8855 13.2174 1.66675 12.1341 1.66675 10.9813C1.66675 9.8285 1.8855 8.74517 2.323 7.73128C2.7605 6.71739 3.35425 5.83545 4.10425 5.08545C4.85425 4.33545 5.73619 3.7417 6.75008 3.3042C7.76397 2.8667 8.8473 2.64795 10.0001 2.64795C11.1529 2.64795 12.2362 2.8667 13.2501 3.3042C14.264 3.7417 15.1459 4.33545 15.8959 5.08545C16.6459 5.83545 17.2397 6.71739 17.6772 7.73128C18.1147 8.74517 18.3334 9.8285 18.3334 10.9813C18.3334 12.1341 18.1147 13.2174 17.6772 14.2313C17.2397 15.2452 16.6459 16.1271 15.8959 16.8771C15.1459 17.6271 14.264 18.2209 13.2501 18.6584C12.2362 19.0959 11.1529 19.3146 10.0001 19.3146ZM10.0001 17.6479C11.8612 17.6479 13.4376 17.0021 14.7292 15.7104C16.0209 14.4188 16.6667 12.8424 16.6667 10.9813C16.6667 9.12017 16.0209 7.54378 14.7292 6.25212C13.4376 4.96045 11.8612 4.31462 10.0001 4.31462C8.13897 4.31462 6.56258 4.96045 5.27091 6.25212C3.97925 7.54378 3.33341 9.12017 3.33341 10.9813C3.33341 12.8424 3.97925 14.4188 5.27091 15.7104C6.56258 17.0021 8.13897 17.6479 10.0001 17.6479Z" fill="black"/>
</g>
</svg>
