<svg width="148" height="20" viewBox="0 0 148 20" fill="none" xmlns="http://www.w3.org/2000/svg">
<path d="M7.2383 13.3867C7.0352 13.3867 6.8633 13.3359 6.7227 13.2344C6.5742 13.1328 6.3984 12.9883 6.1953 12.8008C5.9922 12.6133 5.7656 12.3828 5.5156 12.1094C5.4219 12 5.375 11.9023 5.375 11.8164C5.375 11.7305 5.4219 11.6328 5.5156 11.5234C6 10.9766 6.4414 10.5742 6.8398 10.3164C6.9336 10.2539 7.0664 10.2227 7.2383 10.2227C7.7695 10.2227 8.2266 10.0234 8.6094 9.625C9 9.2266 9.1875 8.58201 9.1719 7.69141C9.1641 6.73051 8.9258 6.05861 8.457 5.67581C7.9961 5.29301 7.3633 5.1016 6.5586 5.1016H5.9961C5.4805 5.1016 5.1289 5.2109 4.9414 5.4297C4.7539 5.6484 4.6602 6.0234 4.6602 6.5547V18.3789C4.6602 18.6133 4.6094 18.7773 4.5078 18.8711C4.4141 18.957 4.25 19 4.0156 19H1.5195C1.2852 19 1.1172 18.957 1.0156 18.8711C0.921898 18.7773 0.875 18.6133 0.875 18.3789V5.33591C0.875 4.55471 0.945299 3.9375 1.0859 3.4844C1.2344 3.0234 1.5156 2.6953 1.9297 2.5C2.3516 2.2969 2.9648 2.1953 3.7695 2.1953H6.5586C8.8008 2.1953 10.4609 2.6367 11.5391 3.5195C12.6172 4.3945 13.1562 5.73831 13.1562 7.55081C13.1562 8.91021 12.8711 10.0195 12.3008 10.8789C11.7383 11.7383 11.0039 12.3711 10.0977 12.7773C9.1992 13.1836 8.2461 13.3867 7.2383 13.3867ZM19.0273 18.3789C19.0273 18.6133 18.9766 18.7773 18.875 18.8711C18.7812 18.957 18.6172 19 18.3828 19H15.9688C15.7344 19 15.5664 18.957 15.4648 18.8711C15.3711 18.7773 15.3242 18.6133 15.3242 18.3789V2.52341C15.3242 2.33591 15.3633 2.1914 15.4414 2.0898C15.7695 1.6602 16.25 1.1953 16.8828 0.695314C16.9922 0.617194 17.0898 0.578125 17.1758 0.578125C17.2773 0.578125 17.375 0.617194 17.4688 0.695314C17.8047 0.953124 18.0859 1.1953 18.3125 1.4219C18.5469 1.6484 18.7461 1.8711 18.9102 2.0898C18.9883 2.1914 19.0273 2.33591 19.0273 2.52341V8.20701H19.0742C19.2461 7.98051 19.4688 7.7539 19.7422 7.5273C20.0156 7.293 20.3789 7.0977 20.832 6.9414C21.293 6.7852 21.8789 6.707 22.5898 6.707C23.3086 6.707 24 6.8555 24.6641 7.1523C25.3281 7.4492 25.8711 7.9492 26.293 8.6523C26.7148 9.3555 26.9258 10.3164 26.9258 11.5352V18.3789C26.9258 18.6133 26.875 18.7773 26.7734 18.8711C26.6797 18.957 26.5156 19 26.2812 19H23.8672C23.6328 19 23.4648 18.957 23.3633 18.8711C23.2695 18.7773 23.2227 18.6133 23.2227 18.3789V12.1797C23.2227 11.3125 23.043 10.6836 22.6836 10.293C22.3242 9.8945 21.8359 9.6953 21.2188 9.6953C20.6094 9.6953 20.1367 9.8281 19.8008 10.0938C19.4648 10.3594 19.207 10.6953 19.0273 11.1016V18.3789ZM35.8438 19.293C33.875 19.293 32.3164 18.7695 31.168 17.7227C30.0195 16.6758 29.4453 15.1172 29.4453 13.0469C29.4453 10.9219 30.0391 9.33591 31.2266 8.28911C32.4219 7.23441 34.0156 6.707 36.0078 6.707C37.9297 6.707 39.4688 7.2266 40.625 8.2656C41.7812 9.2969 42.3594 10.8203 42.3594 12.8359C42.3594 14.9375 41.7812 16.5391 40.625 17.6406C39.4688 18.7422 37.875 19.293 35.8438 19.293ZM35.9609 16.457C36.8203 16.457 37.4688 16.1914 37.9062 15.6602C38.3438 15.1211 38.5625 14.2031 38.5625 12.9062C38.5625 11.6719 38.3398 10.8047 37.8945 10.3047C37.457 9.79691 36.8047 9.543 35.9375 9.543C35.1016 9.543 34.4414 9.81641 33.957 10.3633C33.4805 10.9023 33.2422 11.7812 33.2422 13C33.2422 14.2734 33.4688 15.168 33.9219 15.6836C34.3828 16.1992 35.0625 16.457 35.9609 16.457ZM49.391 19.293C46.7812 19.293 45.4766 17.9375 45.4766 15.2266V9.7305H44.1523C43.918 9.7305 43.7539 9.6836 43.6602 9.5898C43.5742 9.4883 43.5312 9.3203 43.5312 9.0859V7.64451C43.5312 7.41021 43.5742 7.2461 43.6602 7.1523C43.7539 7.0508 43.918 7 44.1523 7H45.4766V5.11331C45.4766 4.92581 45.5156 4.7812 45.5938 4.6797C45.9219 4.25 46.4023 3.7852 47.0352 3.2852C47.1445 3.207 47.2422 3.168 47.3281 3.168C47.4219 3.168 47.5156 3.207 47.6094 3.2852C47.9453 3.543 48.2266 3.7852 48.4531 4.0117C48.6875 4.2383 48.8867 4.4609 49.051 4.6797C49.129 4.7812 49.168 4.92581 49.168 5.11331V7H51.242C51.477 7 51.637 7.0508 51.723 7.1523C51.816 7.2461 51.863 7.41021 51.863 7.64451V9.0859C51.863 9.3203 51.816 9.4883 51.723 9.5898C51.637 9.6836 51.477 9.7305 51.242 9.7305H49.168V14.582C49.168 15.832 49.621 16.457 50.527 16.457C50.668 16.457 50.797 16.4453 50.914 16.4219C51.031 16.3906 51.133 16.3594 51.219 16.3281C51.383 16.2656 51.496 16.2422 51.559 16.2578C51.629 16.2734 51.691 16.3594 51.746 16.5156L52.426 18.332C52.496 18.5273 52.449 18.668 52.285 18.7539C52.168 18.8086 51.883 18.9102 51.43 19.0586C50.984 19.2148 50.305 19.293 49.391 19.293ZM59.914 19.293C57.945 19.293 56.387 18.7695 55.238 17.7227C54.09 16.6758 53.516 15.1172 53.516 13.0469C53.516 10.9219 54.109 9.33591 55.297 8.28911C56.492 7.23441 58.086 6.707 60.078 6.707C62 6.707 63.539 7.2266 64.695 8.2656C65.852 9.2969 66.43 10.8203 66.43 12.8359C66.43 14.9375 65.852 16.5391 64.695 17.6406C63.539 18.7422 61.945 19.293 59.914 19.293ZM60.031 16.457C60.891 16.457 61.539 16.1914 61.977 15.6602C62.414 15.1211 62.633 14.2031 62.633 12.9062C62.633 11.6719 62.41 10.8047 61.965 10.3047C61.527 9.79691 60.875 9.543 60.008 9.543C59.172 9.543 58.512 9.81641 58.027 10.3633C57.551 10.9023 57.312 11.7812 57.312 13C57.312 14.2734 57.539 15.168 57.992 15.6836C58.453 16.1992 59.133 16.457 60.031 16.457ZM80.447 19L78.383 13.696H71.591L69.551 19H67.367L74.063 1.792H76.007L82.679 19H80.447ZM75.815 6.592C75.767 6.464 75.687 6.232 75.575 5.896C75.463 5.56 75.351 5.21601 75.239 4.86401C75.143 4.49601 75.063 4.216 74.999 4.024C74.919 4.344 74.831 4.67201 74.735 5.00801C74.655 5.32801 74.567 5.624 74.471 5.896C74.391 6.168 74.319 6.4 74.255 6.592L72.311 11.776H77.735L75.815 6.592ZM93.147 7.91201H88.947V19H86.859V7.91201H82.707V6.136H93.147V7.91201ZM100.414 5.896C101.518 5.896 102.462 6.136 103.246 6.616C104.046 7.096 104.654 7.776 105.07 8.656C105.502 9.52 105.718 10.536 105.718 11.704V12.976H96.91C96.942 14.432 97.31 15.544 98.014 16.312C98.734 17.064 99.734 17.44 101.014 17.44C101.83 17.44 102.55 17.368 103.174 17.224C103.814 17.064 104.47 16.84 105.142 16.552V18.4C104.486 18.688 103.838 18.896 103.198 19.024C102.558 19.168 101.798 19.24 100.918 19.24C99.702 19.24 98.622 18.992 97.678 18.496C96.75 18 96.022 17.264 95.494 16.288C94.982 15.296 94.726 14.088 94.726 12.664C94.726 11.256 94.958 10.048 95.422 9.04001C95.902 8.03201 96.566 7.256 97.414 6.712C98.278 6.168 99.278 5.896 100.414 5.896ZM100.39 7.62401C99.382 7.62401 98.582 7.952 97.99 8.608C97.414 9.248 97.07 10.144 96.958 11.296H103.51C103.51 10.56 103.398 9.92 103.174 9.376C102.95 8.832 102.606 8.408 102.142 8.104C101.694 7.784 101.11 7.62401 100.39 7.62401ZM118.785 19H116.649V7.88801H112.857C112.697 9.92001 112.497 11.656 112.257 13.096C112.017 14.52 111.713 15.68 111.345 16.576C110.977 17.472 110.537 18.128 110.025 18.544C109.513 18.96 108.913 19.168 108.225 19.168C108.017 19.168 107.809 19.152 107.601 19.12C107.409 19.104 107.249 19.064 107.121 19V17.416C107.217 17.448 107.321 17.472 107.433 17.488C107.545 17.504 107.657 17.512 107.769 17.512C108.121 17.512 108.441 17.368 108.729 17.08C109.017 16.792 109.273 16.352 109.497 15.76C109.737 15.168 109.953 14.424 110.145 13.528C110.337 12.616 110.505 11.544 110.649 10.312C110.793 9.08001 110.921 7.688 111.033 6.136H118.785V19ZM128.796 11.416C129.916 11.416 130.844 11.552 131.58 11.824C132.316 12.096 132.868 12.504 133.236 13.048C133.62 13.576 133.812 14.248 133.812 15.064C133.812 15.864 133.628 16.56 133.26 17.152C132.908 17.744 132.356 18.2 131.604 18.52C130.852 18.84 129.884 19 128.7 19H122.868V6.136H124.98V11.416H128.796ZM131.7 15.184C131.7 14.4 131.42 13.872 130.86 13.6C130.316 13.312 129.548 13.168 128.556 13.168H124.98V17.296H128.604C129.5 17.296 130.236 17.136 130.812 16.816C131.404 16.496 131.7 15.952 131.7 15.184ZM142.086 5.896C143.19 5.896 144.134 6.136 144.918 6.616C145.718 7.096 146.326 7.776 146.742 8.656C147.174 9.52 147.39 10.536 147.39 11.704V12.976H138.582C138.614 14.432 138.982 15.544 139.686 16.312C140.406 17.064 141.406 17.44 142.686 17.44C143.502 17.44 144.222 17.368 144.846 17.224C145.486 17.064 146.142 16.84 146.814 16.552V18.4C146.158 18.688 145.51 18.896 144.87 19.024C144.23 19.168 143.47 19.24 142.59 19.24C141.374 19.24 140.294 18.992 139.35 18.496C138.422 18 137.694 17.264 137.166 16.288C136.654 15.296 136.398 14.088 136.398 12.664C136.398 11.256 136.63 10.048 137.094 9.04001C137.574 8.03201 138.238 7.256 139.086 6.712C139.95 6.168 140.95 5.896 142.086 5.896ZM142.062 7.62401C141.054 7.62401 140.254 7.952 139.662 8.608C139.086 9.248 138.742 10.144 138.63 11.296H145.182C145.182 10.56 145.07 9.92 144.846 9.376C144.622 8.832 144.278 8.408 143.814 8.104C143.366 7.784 142.782 7.62401 142.062 7.62401Z" fill="black"/>
</svg>
