<svg width="50" height="31" viewBox="0 0 50 31" fill="none" xmlns="http://www.w3.org/2000/svg">
<path d="M46.6142 13.9202C45.0827 14.975 42.7558 17.2564 39.9633 18.3672C29.8345 22.4166 19.5584 26.1026 9.30963 29.8327C7.87129 30.3558 6.25044 30.4812 4.70277 30.5551C2.74525 30.6679 0.458731 30.554 0.0332722 28.2451C-0.195076 27.0266 0.798291 25.4134 1.59642 24.2289C2.2067 23.327 3.37895 22.7657 4.35222 22.1249C13.8014 15.9548 23.2049 9.70242 32.7658 3.70933C35.3414 2.09836 38.3248 0.924986 41.2837 0.215629C44.0097 -0.429449 46.753 0.330556 48.3611 3.06898C49.8434 5.60826 49.9447 8.19876 48.5173 10.8072C48.1413 11.5088 47.706 12.1477 46.6142 13.9202Z" fill="#EDBC5A"/>
</svg>
