<svg width="48" height="56" viewBox="0 0 48 56" fill="none" xmlns="http://www.w3.org/2000/svg">
<path d="M0 55.1479C1.0379 51.7157 1.40408 49.0388 2.62188 46.8369C4.85894 42.7777 7.72044 39.0697 10.0981 35.0958C14.2663 28.1458 18.1235 21.0073 22.3921 14.1182C24.8054 10.2206 27.3664 6.26208 30.6012 3.06725C34.395 -0.677535 39.7436 -0.813695 43.4837 1.68512C47.613 4.44737 49.0394 9.74186 46.4792 15.1094C44.8442 18.5488 42.8232 22.0552 40.1415 24.7099C31.6123 33.1468 22.7471 41.2567 13.8879 49.3568C11.6203 51.4283 9.04743 53.3014 6.32924 54.717C4.91317 55.4724 2.85138 55.0161 0 55.1479Z" fill="#EDBC5A"/>
</svg>
