<svg width="23" height="85" viewBox="0 0 23 85" fill="none" xmlns="http://www.w3.org/2000/svg">
<path d="M-1.44644e-07 80.8054L4.18181 84.9999L11.4385 77.7211L18.8182 84.9999L23 80.8054L15.6203 73.5266L23 66.1244L18.8182 61.93L11.4385 69.3322L4.18181 61.93L-1.44644e-07 66.1244L7.25668 73.5266L-1.44644e-07 80.8054Z" fill="#EDBC5A"/>
<path d="M4.18181 54.0352L11.4385 46.7565L18.8182 54.0352L23 49.8407L15.6203 42.4385L23 35.1597L18.8182 30.9652L11.4385 38.244L4.18181 30.9652L-1.44644e-07 35.1597L7.25668 42.4385L-1.44644e-07 49.8407L4.18181 54.0352Z" fill="#EDBC5A"/>
<path d="M4.18181 23.0701L11.4385 15.6679L18.8182 23.0701L23 18.8755L15.6203 11.4734L23 4.19457L18.8182 0L11.4385 7.27879L4.18181 0L-1.44644e-07 4.19457L7.25668 11.4734L-1.44644e-07 18.8755L4.18181 23.0701Z" fill="#EDBC5A"/>
</svg>
