<svg width="783" height="172" viewBox="0 0 783 172" fill="none" xmlns="http://www.w3.org/2000/svg">
<path fill-rule="evenodd" clip-rule="evenodd" d="M26.0139 37.0524L58.5766 27.1225C91.1394 17.1926 156.265 -2.66716 188.873 0.611548C221.481 3.89026 221.572 30.3074 243.341 41.299C265.11 52.2905 308.557 47.8564 352.005 43.4223C395.452 38.9882 438.899 34.5541 465.004 42.4605C491.109 50.3669 499.871 70.6138 512.968 87.7756C526.066 104.937 543.5 119.014 582.611 117.665C621.723 116.316 682.513 99.5415 719.457 99.735C756.4 99.9286 769.498 117.09 776.047 125.671L782.596 134.252L730.568 171.274L715.348 168.863C700.128 166.452 669.687 161.631 639.247 156.81C608.807 151.989 578.366 147.167 547.926 142.346C517.486 137.525 487.045 132.704 456.605 127.882C426.165 123.061 395.724 118.24 365.284 113.418C334.844 108.597 304.403 103.776 273.963 98.9546C243.523 94.1333 213.082 89.3121 182.642 84.4908C152.202 79.6695 121.761 74.8482 91.321 70.0269C60.8807 65.2057 30.4403 60.3844 15.2202 57.9738L-2.87133e-06 55.5631L26.0139 37.0524Z" fill="#EDBC5A"/>
</svg>
