<svg width="341" height="173" viewBox="0 0 341 173" fill="none" xmlns="http://www.w3.org/2000/svg">
<path fill-rule="evenodd" clip-rule="evenodd" d="M-393.779 27.9333L-348.923 19.4954C-304.066 11.0576 -214.352 -5.81816 -174.423 3.44567C-134.494 12.7095 -144.351 48.1129 -121.017 66.0899C-97.6839 84.0669 -41.1602 84.6175 15.3636 85.1682C71.8873 85.7188 128.411 86.2694 158.383 100.761C188.354 115.253 191.774 143.686 201.831 168.633C211.889 193.581 228.584 215.043 278.47 219.079C328.356 223.115 411.431 209.725 457.998 215.503C504.565 221.282 514.622 246.229 519.651 258.703L524.68 271.177L445.023 313L426.719 307.497C408.414 301.994 371.804 290.987 335.195 279.981C298.585 268.974 261.975 257.968 225.366 246.961C188.756 235.955 152.146 224.948 115.537 213.942C78.9271 202.935 42.3175 191.929 5.70789 180.922C-30.9017 169.916 -67.5114 158.91 -104.121 147.903C-140.731 136.897 -177.34 125.89 -213.95 114.884C-250.56 103.877 -287.169 92.8708 -323.779 81.8643C-360.388 70.8579 -396.998 59.8514 -415.303 54.3482L-433.608 48.8449L-393.779 27.9333Z" fill="#FFF1E5"/>
</svg>
