<svg width="21" height="66" viewBox="0 0 21 66" fill="none" xmlns="http://www.w3.org/2000/svg">
<path d="M14.9106 64.4911C14.0163 64.8244 12.9311 65.6024 11.982 65.4648C11.003 65.3092 9.70866 64.4565 9.35059 63.5831C8.48189 61.4569 7.92714 59.1791 7.50949 56.9022C5.07591 43.5725 2.66488 30.229 0.402948 16.8666C-0.0381289 14.2474 -0.177249 11.4285 0.29333 8.82838C1.1898 3.9022 5.48705 0.257565 9.91069 0.0119297C14.2758 -0.228109 18.6562 3.17849 20.1565 8.0394C20.5009 9.13686 20.7923 10.2979 20.8315 11.4428C21.3662 28.148 20.5121 44.7361 16.3884 61.0384C16.1195 62.1471 15.494 63.1629 14.9106 64.4911Z" fill="#EDBC5A"/>
</svg>
