<svg width="37" height="142" viewBox="0 0 37 142" fill="none" xmlns="http://www.w3.org/2000/svg">
<path d="M31.3369 104.72C34.0659 104.52 36.5928 106.724 36.896 109.43C37.1992 112.536 34.9754 115.142 31.9432 115.342C28.911 115.543 26.2832 113.037 26.2832 110.031C26.2832 107.325 28.6079 104.82 31.3369 104.72Z" fill="#EDBC5A"/>
<path d="M5.66392 104.72C8.69615 104.92 11.0209 107.626 10.7176 110.632C10.4144 113.438 7.98863 115.442 5.15855 115.342C2.32847 115.242 0.104981 112.837 0.00390625 110.131C0.00390625 107.125 2.63169 104.52 5.66392 104.72Z" fill="#EDBC5A"/>
<path d="M26.2821 136.486C26.3832 133.48 29.112 131.175 32.1442 131.375C34.9743 131.676 37.0969 133.981 36.9959 136.787C36.8948 139.592 34.5701 141.897 31.74 141.897C28.8089 142.098 26.181 139.392 26.2821 136.486Z" fill="#EDBC5A"/>
<path d="M5.25854 131.375C8.39185 131.275 10.8175 133.78 10.7165 136.786C10.6154 139.592 8.29082 141.897 5.56181 141.997C2.63066 142.097 -0.0983519 139.392 0.0027225 136.486C0.103797 133.78 2.42846 131.475 5.25854 131.375Z" fill="#EDBC5A"/>
<path d="M26.2826 31.5684C26.1815 28.8628 28.4051 26.3576 31.2352 26.1572C34.3685 25.8566 36.8953 28.1614 36.9963 31.2678C37.0974 34.274 34.5707 36.8794 31.5384 36.7792C28.8094 36.679 26.3837 34.274 26.2826 31.5684Z" fill="#EDBC5A"/>
<path d="M5.46074 36.6791C2.52958 36.7793 -0.0982511 34.0737 0.00282332 31.1676C0.103898 28.3618 2.42856 26.1573 5.25864 26.057C8.39195 25.9568 10.8176 28.462 10.7166 31.5685C10.6155 34.3743 8.29082 36.6791 5.46074 36.6791Z" fill="#EDBC5A"/>
<path d="M0.00282332 84.1775C-0.098251 81.2715 2.52958 78.5659 5.46074 78.6661C8.18975 78.7663 10.6155 81.0711 10.7166 83.7768C10.8176 86.5826 8.69502 88.9876 5.86494 89.2882C2.83271 89.5888 0.204972 87.284 0.00282332 84.1775Z" fill="#EDBC5A"/>
<path d="M26.2828 83.7767C26.3838 80.8707 29.2137 78.3654 32.1449 78.6661C34.975 78.9667 37.0976 81.3717 36.9965 84.1775C36.8954 87.2839 34.2674 89.4885 31.1341 89.1879C28.3041 88.9875 26.1817 86.5825 26.2828 83.7767Z" fill="#EDBC5A"/>
<path d="M26.2821 57.2217C26.3832 54.2154 29.112 51.9107 32.1442 52.1111C34.9743 52.4117 37.0969 54.7165 36.9959 57.5223C36.8948 60.3281 34.5701 62.6329 31.74 62.6329C28.8089 62.8333 26.181 60.1277 26.2821 57.2217Z" fill="#EDBC5A"/>
<path d="M0.00317722 57.5223C-0.0978971 54.8167 2.22671 52.4117 4.95572 52.1111C8.08903 51.9107 10.6158 54.2154 10.7169 57.2217C10.818 60.0275 8.5943 62.4325 5.86529 62.6329C2.93414 62.9335 0.104252 60.4283 0.00317722 57.5223Z" fill="#EDBC5A"/>
<path d="M0.00317722 5.51448C-0.0978971 2.80887 2.22671 0.403892 4.95572 0.103268C8.08903 -0.097147 10.6158 2.20764 10.7169 5.21387C10.818 8.01968 8.5943 10.4247 5.86529 10.6251C2.93414 10.9257 0.104252 8.4205 0.00317722 5.51448Z" fill="#EDBC5A"/>
<path d="M26.282 5.21383C26.3831 2.50823 28.7077 0.103228 31.4367 0.00302079C34.57 -0.0971869 36.9958 2.30782 36.9958 5.41426C36.8947 8.22008 34.6712 10.5248 31.8411 10.625C28.91 10.8255 26.1809 8.22006 26.282 5.21383Z" fill="#EDBC5A"/>
</svg>
