<svg width="20" height="20" viewBox="0 0 20 20" fill="none" xmlns="http://www.w3.org/2000/svg">
<path fill-rule="evenodd" clip-rule="evenodd" d="M2.9166 10C2.9166 6.08798 6.08792 2.91667 9.99992 2.91667C13.9119 2.91667 17.0833 6.08798 17.0833 10C17.0833 13.912 13.9119 17.0833 9.99992 17.0833C8.60642 17.0833 7.30931 16.6818 6.2149 15.9884C6.01123 15.8594 5.76165 15.8249 5.53062 15.8938L3.13133 16.6099L4.03469 14.4961C4.14147 14.2462 4.11974 13.9601 3.97648 13.7292C3.30467 12.6467 2.9166 11.3699 2.9166 10ZM9.99992 1.25C5.16744 1.25 1.24994 5.16751 1.24994 10C1.24994 11.5317 1.64422 12.9736 2.33713 14.2273L0.900312 17.5892C0.773293 17.8864 0.829595 18.2303 1.04477 18.4714C1.25994 18.7127 1.59519 18.8077 1.90491 18.7152L5.65443 17.5962C6.93529 18.3304 8.41967 18.75 9.99992 18.75C14.8324 18.75 18.7499 14.8325 18.7499 10C18.7499 5.16751 14.8324 1.25 9.99992 1.25ZM11.9103 11.8187L10.8152 12.5901C10.3023 12.2979 9.73517 11.8901 9.16634 11.3212C8.575 10.7299 8.1366 10.1194 7.81335 9.55942L8.50934 8.96867C8.808 8.71517 8.88975 8.28777 8.70575 7.9419L7.81895 6.27523C7.69954 6.05081 7.48422 5.89317 7.23421 5.84712C6.9842 5.80107 6.72684 5.87167 6.53531 6.03883L6.27239 6.26829C5.64011 6.82012 5.26617 7.72692 5.57609 8.64508C5.8974 9.59692 6.58311 11.095 7.98785 12.4997C9.49917 14.0111 11.0343 14.6062 11.9321 14.8374C12.6554 15.0236 13.3399 14.774 13.8223 14.381L14.3152 13.9793C14.526 13.8076 14.6398 13.5437 14.6199 13.2724C14.6 13.0012 14.449 12.7567 14.2153 12.6174L12.8168 11.7841C12.5343 11.6158 12.1793 11.6293 11.9103 11.8187Z" fill="black"/>
</svg>
